<svg width="70" height="45" viewBox="0 0 70 45" fill="none" xmlns="http://www.w3.org/2000/svg">
<path d="M24.4752 22.6873C24.4403 24.8461 24.4061 26.9706 24.3712 29.1341C22.9361 29.0795 21.8985 29.7359 21.187 31C20.3131 30.9832 19.436 30.9663 18.5401 30.949C18.2811 30.3859 18.0254 29.8301 17.7648 29.2636C18.4631 28.737 19.25 28.3603 19.9305 27.8048C19.1107 27.8667 18.3159 28.0467 17.4555 28.1526C18.8556 26.8654 20.2219 25.6095 21.5881 24.3535C21.5765 24.3324 21.565 24.3115 21.5534 24.2904C21.0084 24.4838 20.4634 24.6771 19.8712 24.8872C20.0218 24.639 20.1469 24.4328 20.272 24.2264C20.2582 24.2099 20.2445 24.1936 20.2307 24.1772C19.5928 24.395 18.9549 24.6128 18.317 24.8306C18.3109 24.819 18.3049 24.8075 18.2988 24.7959C18.5169 24.5625 18.7348 24.3291 18.9923 24.0533C18.2011 24.2603 17.4761 24.5424 16.721 24.7409C18.5574 23.4058 20.3936 22.0708 22.23 20.7358C22.221 20.7146 22.2118 20.6933 22.2028 20.6721C21.7018 20.772 21.2203 20.954 20.7275 21.0869C20.216 21.2249 19.713 21.3953 19.2049 21.5468C18.705 21.6959 18.2034 21.839 17.6897 21.96C18.1941 21.6383 18.6985 21.3167 19.203 20.9949C19.1923 20.9706 19.1817 20.9462 19.1711 20.9219C18.1122 21.2264 17.0709 21.5928 16 21.8844C18.5521 20.3412 21.1044 18.798 23.6565 17.2548C23.6471 17.2299 23.6376 17.205 23.6283 17.1801C23.5333 17.2032 23.4352 17.2172 23.3439 17.2508C22.7116 17.4827 22.0805 17.7187 21.4492 17.9535C20.8686 18.1695 20.2879 18.3855 19.683 18.5666C20.0261 18.269 20.3692 17.9712 20.7176 17.6691C20.6273 17.5436 20.5389 17.6257 20.472 17.6516C20.0257 17.8243 19.5833 18.0071 19.1395 18.1862C18.8841 18.2893 18.6286 18.392 18.3724 18.4928C18.3168 18.5147 18.2577 18.5276 18.1847 18.5166C18.377 18.3491 18.5692 18.1817 18.8061 17.9752C18.3164 17.8958 17.8787 17.9121 17.4305 17.8595C19.0043 17.0018 20.578 16.144 22.1517 15.2863C22.1453 15.2647 22.1389 15.2431 22.1325 15.2216C21.7417 15.2673 21.3613 15.3795 20.976 15.459C20.5792 15.5409 20.1836 15.6294 19.771 15.6779C20.9298 14.9959 22.091 14.318 23.2468 13.6307C24.3977 12.9463 25.5589 12.2794 26.7031 11.5834C26.6928 11.5601 26.6825 11.5369 26.6723 11.5136C25.5818 11.8291 24.4913 12.1446 23.4008 12.4601C23.3932 12.4507 23.3856 12.4413 23.3782 12.432C23.6497 12.1838 23.9212 11.9356 24.1927 11.6873C24.1831 11.6694 24.1736 11.6515 24.164 11.6335C23.2894 11.943 22.4396 12.3227 21.5494 12.614C22.0345 12.2572 22.5198 11.9004 23.0049 11.5436C22.9997 11.5267 22.9946 11.5099 22.9894 11.493C22.9247 11.4847 22.8599 11.4757 22.7951 11.4683C22.7375 11.4618 22.6796 11.4567 22.5652 11.4454C23.3784 10.9463 24.189 10.5549 24.9408 10.0627C24.9311 10.0401 24.9213 10.0174 24.9116 9.99483C23.9937 10.2672 23.0757 10.5395 22.1577 10.8119C22.15 10.7942 22.1424 10.7765 22.1348 10.7589C23.3369 10.0703 24.5391 9.38168 25.7412 8.69308C25.7329 8.66754 25.7247 8.64188 25.7164 8.61633L24.6553 8.8253C24.6516 8.81733 24.648 8.80925 24.6444 8.80128C25.6694 8.11913 26.6942 7.43698 27.7191 6.75483C27.7066 6.73016 27.6941 6.70548 27.6817 6.68081C26.9783 6.94316 26.3105 7.298 25.5501 7.60446C25.6297 7.46504 25.6768 7.37682 25.7292 7.29199C25.7849 7.20203 25.8454 7.11523 25.8897 6.9995C25.0577 7.18783 24.263 7.49157 23.426 7.68132C24.6417 6.91456 25.8575 6.14779 27.0732 5.38103C27.0614 5.35417 27.0495 5.32731 27.0375 5.30035C26.4669 5.4758 25.9132 5.70857 25.3286 5.85268C26.0831 5.42951 26.8376 5.00633 27.5922 4.58315C27.5911 4.56513 27.59 4.54723 27.589 4.52921C27.2919 4.51437 26.9948 4.49941 26.6352 4.48139C26.9838 4.30583 27.2707 4.16128 27.5576 4.01684C27.5542 3.9985 27.5508 3.98015 27.5474 3.96181C27.503 3.95286 27.4588 3.94314 27.4142 3.93506C27.3728 3.92764 27.331 3.92185 27.2748 3.91312C27.5103 3.65262 27.7338 3.40543 27.9573 3.15814C27.9448 3.14057 27.9322 3.12299 27.9197 3.10541C27.7375 3.15694 27.5553 3.20859 27.3056 3.27944C27.565 3.01512 27.7817 2.79447 27.9984 2.57382C27.992 2.55395 27.9856 2.53419 27.9791 2.51443C27.7832 2.50526 27.5873 2.49608 27.3365 2.4844C27.4775 2.38341 27.5812 2.30917 27.7014 2.22303V1.52602C28.0656 1.35516 28.4238 1.18702 28.8226 1C28.7851 1.30133 28.7526 1.56293 28.7151 1.86372C28.9194 1.81819 29.0946 1.7791 29.2699 1.73991C29.2769 1.7517 29.284 1.76349 29.2911 1.77518C29.1264 1.91372 28.9617 2.05238 28.746 2.23394C29.2363 2.22881 29.6549 2.07836 30.1371 2.0705C29.5612 2.51999 29.0241 2.93935 28.4868 3.35871C28.4957 3.37847 28.5045 3.39812 28.5134 3.41777C28.8009 3.36973 29.0885 3.32158 29.4208 3.26612C29.2389 3.43153 29.0904 3.56658 28.9418 3.70153C28.9503 3.72151 28.959 3.7416 28.9675 3.76158C29.4838 3.65818 29.9738 3.44474 30.5076 3.36285L28.72 4.67999C28.7285 4.70019 28.7369 4.72039 28.7454 4.74059C29.4639 4.57704 30.1823 4.41349 30.9009 4.24983C30.9041 4.26173 30.9072 4.27352 30.9104 4.28542C30.4897 4.63545 30.0688 4.98536 29.648 5.33539C29.6596 5.35865 29.6712 5.3819 29.6827 5.40505C30.1593 5.29707 30.636 5.18898 31.1126 5.0809C31.1166 5.08701 31.1208 5.09312 31.1248 5.09913C30.9537 5.19804 30.7827 5.29685 30.6116 5.39577C30.6199 5.4188 30.6282 5.44195 30.6364 5.4651C31.1531 5.39861 31.6505 5.22916 32.1582 5.11692C32.6658 5.00469 33.1692 4.87378 33.6895 4.78218C32.4407 5.49654 31.1919 6.21101 29.943 6.92537C29.949 6.94535 29.9551 6.96522 29.961 6.9852C30.2587 6.98432 30.541 6.87635 30.8295 6.81379C31.1219 6.75024 31.4124 6.67797 31.7209 6.64445C31.0702 6.99961 30.4194 7.35466 29.7687 7.70982C30.0299 7.8321 30.2647 7.67455 30.5449 7.70174C30.0021 8.12612 29.4875 8.52833 28.9728 8.93066C28.9842 8.95358 28.9956 8.97651 29.007 8.99944C30.5036 8.56938 31.9789 8.06312 33.4731 7.62455C33.4813 7.64169 33.4895 7.65883 33.4977 7.67597C32.8521 8.08627 32.2066 8.49667 31.561 8.90697C31.5691 8.92749 31.5771 8.94802 31.5851 8.96854C32.781 8.62354 33.9437 8.16509 35.1551 7.84302C34.197 8.52866 33.2388 9.21431 32.2808 9.89984C32.2882 9.92146 32.2957 9.94308 32.3031 9.96469C32.6935 9.94843 33.0562 9.75321 33.4762 9.71718C33.343 9.97375 33.224 10.2031 33.0767 10.4868C33.7981 10.3207 34.446 10.0671 35.142 9.95956C34.4731 10.4896 33.804 11.0197 33.135 11.5498L33.1741 11.6221L37.1821 10.2833C35.0554 11.673 32.8779 12.9653 30.751 14.3514C31.6735 14.0659 32.5694 13.7144 33.4897 13.4069C33.0784 13.7156 32.6653 14.0219 32.2565 14.334C31.8459 14.6476 31.4226 14.9462 31.0662 15.3337C33 14.6568 34.8716 13.8389 36.7926 13.1401C35.6306 13.9518 34.4686 14.7635 33.3065 15.5752C33.3162 15.598 33.3258 15.6208 33.3354 15.6436C33.9114 15.4897 34.4788 15.3013 35.0911 15.1205C34.8453 15.3913 34.6281 15.6305 34.4109 15.8699L34.4434 15.9345C34.536 15.9099 34.634 15.8976 34.7203 15.8586C35.3517 15.5734 35.9808 15.2828 36.6107 14.9941C36.6409 14.9803 36.6722 14.9686 36.7205 14.985C36.2711 15.316 35.8217 15.647 35.3723 15.9781C35.3839 16.0031 35.3955 16.0281 35.407 16.0531C35.7984 15.9439 36.1898 15.8347 36.6368 15.7101C36.4748 15.9854 36.3408 16.2132 36.2067 16.441C36.2156 16.4572 36.2245 16.4734 36.2335 16.4897C37.1461 16.1715 38.0588 15.8534 38.9714 15.5352C38.981 15.5546 38.9905 15.5739 39 15.5932C37.3101 16.7914 35.6202 17.9896 33.9003 19.2091C34.0522 19.2919 34.1329 19.2226 34.2106 19.1822C34.756 18.8989 35.2998 18.6125 35.8429 18.3248C36.4549 18.0005 37.0657 17.6738 37.6891 17.367C37.1588 17.7923 36.5896 18.1634 36.0789 18.6223C36.857 18.3959 37.5878 18.0374 38.4216 17.8262C38.1257 18.1691 37.8672 18.4665 37.611 18.7658C37.1259 19.3326 36.6568 19.9148 36.1526 20.463C35.795 20.8518 35.3958 21.2015 35.0059 21.5579C34.2913 22.2112 33.5709 22.8581 32.8506 23.505C32.1503 24.1338 31.4472 24.7594 30.7444 25.3856C30.7269 25.4013 30.6998 25.406 30.6557 25.4251C30.6867 24.5502 30.7169 23.6926 30.7487 22.7951C28.6614 22.7206 26.589 22.7749 24.4752 22.6873Z" fill="#040000"/>
<path d="M45.2841 24.7541C44.745 24.7196 44.2058 24.6851 43.6667 24.6506C43.6631 24.6419 43.6594 24.6331 43.6558 24.6244C43.9265 24.5365 44.1972 24.4487 44.468 24.3607C44.4682 24.3396 44.4685 24.3185 44.4687 24.2975C44.3262 24.2844 44.1836 24.2715 43.9981 24.2548C44.2969 24.1442 44.5599 24.0469 44.8228 23.9495C44.8198 23.9295 44.8168 23.9094 44.8138 23.8893C44.3337 23.8593 43.8537 23.8294 43.3736 23.7994C43.3706 23.7859 43.3675 23.7725 43.3644 23.759C44.165 23.5695 44.9655 23.38 45.766 23.1905C45.7625 23.1634 45.759 23.1362 45.7556 23.1092C45.3182 23.146 44.8809 23.1828 44.4434 23.2198C44.4346 23.197 44.4258 23.1742 44.4169 23.1513C44.5576 23.0432 44.6983 22.935 44.8824 22.7936C44.3878 22.7096 43.9428 22.8362 43.4899 22.7572C43.9554 22.63 44.4208 22.5027 44.8862 22.3754C44.8827 22.3527 44.8791 22.3299 44.8756 22.3071C44.2519 22.3452 43.633 22.4529 43 22.4459C44.0597 22.1862 45.1195 21.9266 46.1792 21.667C46.1769 21.6482 46.1745 21.6295 46.1722 21.6108H44.9836C44.9814 21.6037 44.9793 21.5967 44.9772 21.5896C45.3692 21.4699 45.7613 21.3503 46.1533 21.2306C46.1517 21.2068 46.15 21.1828 46.1483 21.1589C46.0858 21.1589 46.0234 21.1589 45.9609 21.1589C45.8992 21.1589 45.8375 21.1589 45.7758 21.1589C45.7731 21.1506 45.7704 21.1423 45.7678 21.1341C46.0332 21.0373 46.2988 20.9404 46.5645 20.8437L46.5636 20.7936C46.4067 20.7725 46.2497 20.7514 46.0616 20.7261C46.1897 20.6238 46.2981 20.5372 46.4063 20.4507C46.3998 20.4366 46.3934 20.4226 46.3868 20.4086C45.7337 20.4573 45.0808 20.5061 44.4277 20.5547C45.1701 20.2487 45.9491 20.036 46.6956 19.7367C46.6902 19.7161 46.685 19.6953 46.6796 19.6746C46.3351 19.7141 45.9907 19.7536 45.6462 19.7931C45.6435 19.7824 45.6409 19.7717 45.6382 19.761C46.1261 19.5946 46.614 19.4282 47.1018 19.2618C47.0955 19.2365 47.0892 19.2111 47.0828 19.1859C46.6829 19.2481 46.2829 19.3103 45.8829 19.3724C45.8801 19.3641 45.8775 19.3558 45.8747 19.3474C45.9991 19.2744 46.1235 19.2014 46.248 19.1284C45.7609 19.1198 45.2999 19.2554 44.8201 19.3011C45.4459 19.0483 46.0716 18.7954 46.7593 18.5175C46.4286 18.4366 46.173 18.6009 45.8993 18.5167C46.4811 18.2845 47.0629 18.0524 47.6445 17.8201C47.6409 17.8041 47.6372 17.7882 47.6337 17.7722H47.292C47.2852 17.7563 47.2785 17.7403 47.2718 17.7244C47.4677 17.6073 47.6636 17.4902 47.8596 17.3731C47.8521 17.3546 47.8446 17.3359 47.8371 17.3174C47.4508 17.3512 47.0934 17.5273 46.6944 17.5522C46.9293 17.4292 47.1685 17.3137 47.3979 17.181C47.6317 17.0457 47.9089 16.9805 48.1198 16.7541C48.0506 16.7392 48.0101 16.7306 47.9437 16.7163C48.0634 16.6214 48.1715 16.5357 48.2795 16.4501C48.2721 16.436 48.2647 16.4219 48.2572 16.4078C48.0718 16.422 47.8866 16.4363 47.7012 16.4506C47.6987 16.4403 47.6963 16.43 47.6937 16.4197C48.0185 16.2787 48.3432 16.1377 48.668 15.9967C48.6647 15.9768 48.6615 15.9568 48.6583 15.9368H48.1635L48.1436 15.8781C48.297 15.7765 48.4505 15.6747 48.6597 15.536H48.3004C48.4202 15.4502 48.5047 15.3897 48.6349 15.2965C48.4893 15.233 48.43 15.2072 48.3463 15.1707C48.4449 15.0958 48.5296 15.0315 48.6304 14.9549C48.5887 14.7766 48.5469 14.5975 48.4988 14.3916C48.5972 14.2827 48.7068 14.1614 48.8526 14V15.0124C49.0203 14.9862 49.1688 14.9632 49.3525 14.9346C49.2582 15.0963 49.1813 15.2281 49.1044 15.3598C49.1164 15.3769 49.1282 15.394 49.14 15.4111C49.5326 15.2723 49.9252 15.1335 50.3178 14.9948C50.3282 15.011 50.3386 15.0272 50.349 15.0434C50.047 15.3378 49.745 15.6322 49.4429 15.9267C49.4557 15.9471 49.4686 15.9674 49.4814 15.9879C49.7776 15.8703 50.0737 15.7527 50.3697 15.6352C50.3778 15.6429 50.3859 15.6508 50.3941 15.6585C50.246 15.8198 50.098 15.9811 49.9499 16.1424C49.9583 16.1596 49.9665 16.1767 49.9748 16.1938C50.4494 16.0996 50.9239 16.0054 51.3985 15.9113C51.4024 15.9219 51.4062 15.9327 51.4101 15.9434C50.6376 16.3492 49.8651 16.755 49.0926 17.1608C49.1016 17.1881 49.1107 17.2154 49.1197 17.2427C49.4699 17.1763 49.8202 17.1099 50.208 17.0363C50.1436 17.1171 50.102 17.1691 50.0605 17.2211C50.0667 17.2372 50.0731 17.2531 50.0795 17.2692C50.5856 17.1177 51.0916 16.9663 51.5977 16.8148L51.6131 16.8403C51.2242 17.0844 50.8354 17.3284 50.4466 17.5725C50.452 17.5954 50.4573 17.6183 50.4627 17.6412C50.7382 17.6234 51.0138 17.6054 51.2893 17.5875C51.2933 17.601 51.2973 17.6145 51.3015 17.6281C50.8802 17.8264 50.459 18.0246 50.0377 18.2229C50.0444 18.2462 50.051 18.2696 50.0576 18.293C50.9369 18.1804 51.8032 17.9834 52.6896 17.8739C51.9714 18.1545 51.2531 18.4352 50.5348 18.7158C50.5372 18.7313 50.5397 18.7467 50.5422 18.7622H51.3217C50.917 18.9046 50.5146 19.0464 50.1122 19.188C50.1176 19.2136 50.1232 19.2392 50.1287 19.2648C50.9283 19.2246 51.7177 19.0644 52.5256 19.0393C52.17 19.1717 51.8145 19.3043 51.459 19.4367C51.4647 19.4608 51.4705 19.485 51.4762 19.5091C51.6711 19.4939 51.8658 19.4787 52.0606 19.4634C52.0621 19.4712 52.0638 19.4789 52.0654 19.4867C51.6778 19.599 51.2903 19.7113 50.9027 19.8236C51.185 19.9585 51.4594 19.7894 51.776 19.8587C51.5895 19.9692 51.4279 20.0651 51.2662 20.1609C51.2755 20.1845 51.2846 20.2081 51.2939 20.2316C51.8578 20.1678 52.4216 20.1039 52.9855 20.0401C52.9903 20.0523 52.9952 20.0645 53 20.0766C52.6413 20.2109 52.2828 20.3451 51.9241 20.4793C51.9253 20.4949 51.9266 20.5104 51.928 20.5261C52.0515 20.5454 52.1752 20.5648 52.2987 20.5841C52.3023 20.5951 52.3057 20.6063 52.3093 20.6173C51.5767 20.8776 50.8441 21.1379 50.1116 21.3982C50.1195 21.4278 50.1276 21.4575 50.1356 21.4871C51.0483 21.3536 51.9438 21.1172 52.8654 21.0051C52.3989 21.1924 51.9336 21.3821 51.4659 21.566C51.0088 21.7457 50.5436 21.906 50.1133 22.1567C50.5147 22.1538 50.8825 22.0164 51.3248 21.9162C51.0923 22.0892 50.9052 22.2286 50.7179 22.3679C50.7288 22.3916 50.7397 22.4152 50.7505 22.4389C51.3922 22.2633 52.034 22.0876 52.6757 21.9121C52.6796 21.9252 52.6835 21.9382 52.6874 21.9514C52.2369 22.1479 51.7864 22.3444 51.3358 22.541C51.3425 22.5643 51.3492 22.5876 51.356 22.6109C51.6463 22.5893 51.9367 22.5677 52.2271 22.5462C51.7059 22.8277 51.122 22.9536 50.5933 23.2107L50.6129 23.2857C51.0865 23.2064 51.5602 23.1271 52.0338 23.0478C52.0378 23.0579 52.0417 23.068 52.0456 23.0782C51.8835 23.1909 51.7213 23.3036 51.5592 23.4164C51.5673 23.4302 51.5753 23.444 51.5835 23.4578H52.9919C52.7227 23.5644 52.4845 23.6588 52.2464 23.7531C52.2521 23.7777 52.2578 23.8023 52.2635 23.8269H52.8482C52.8535 23.8465 52.8587 23.866 52.864 23.8857C52.6966 23.9839 52.5292 24.082 52.3299 24.1989C52.4397 24.259 52.5159 24.3006 52.6436 24.3705C52.0478 24.5075 51.4973 24.6341 50.9468 24.7607C50.9498 24.7889 50.9528 24.8171 50.9559 24.8453C51.4899 24.8542 52.0244 24.8469 52.6254 24.8347C52.036 25.0911 51.457 25.1707 50.9372 25.4426C51.5301 25.5576 52.1276 25.4736 52.7589 25.5611C52.6109 26.0226 52.4682 26.4669 52.3303 26.8969C51.8219 27.1165 51.3104 27.2695 50.8337 27.5311C51.2087 27.6041 51.5815 27.5786 51.9784 27.6039C51.3182 28.8042 50.6036 29.9341 49.7344 31C47.846 29.1276 45.9729 27.2702 44.0808 25.3943C44.4969 25.1743 44.9194 25.0433 45.2978 24.826C45.2932 24.8021 45.2887 24.778 45.2841 24.7541Z" fill="#040000"/>
<path d="M30 43V43.9983C29.9 43.9983 29.8032 44.0025 29.7087 43.9977C29.151 43.9687 28.5944 43.9376 28.0367 43.9066C27.7682 43.8921 27.4986 43.8735 27.229 43.8617C26.6801 43.8362 26.1311 43.8176 25.5821 43.79C25.0255 43.7617 24.47 43.7217 23.9123 43.6927C23.3547 43.6644 22.7959 43.6444 22.2382 43.6182C21.9241 43.6037 21.6099 43.5837 21.2947 43.5658C20.9903 43.5492 20.6848 43.5319 20.3793 43.5154C19.7412 43.4816 19.1031 43.4464 18.465 43.4153C17.9334 43.3898 17.3996 43.3712 16.8681 43.3457L11 43.0138C11.0022 43.0083 11.0087 43.0007 11.013 43.0007C17.3322 43 23.6514 43 30 43Z" fill="#040000"/>
<path d="M58 43.0275L39 44V43H57.9935C57.9956 43.0087 57.9978 43.0181 58 43.0275Z" fill="#040000"/>
<path d="M30.9929 29.7166H30.0248C30.0166 29.6992 30.0084 29.6818 30 29.6643C32.4229 27.4482 34.8457 25.232 37.2858 23C39.5255 25.335 41.7495 27.6537 44 30H43.0203C41.1076 28.0053 39.1891 26.0045 37.2533 23.9857C35.1532 25.9083 33.0662 27.8188 30.9929 29.7166Z" fill="#040000"/>
<path d="M6.83123 40.7516C6.7082 38.9873 6.58716 37.2513 6.46335 35.476C6.2384 35.8172 6.23229 35.8299 6.2484 36.1373C6.26963 36.5425 6.29175 36.9476 6.31898 37.3524C6.39011 38.4087 6.46368 39.4648 6.53793 40.5208C6.54315 40.5965 6.56082 40.6713 6.5736 40.7516H6.83123ZM3.78372 40.2689C2.90425 38.5488 2.04057 36.8594 1.17599 35.1683C1.08841 35.1731 1.01806 35.177 0.920811 35.1822C1.83318 36.9713 2.7342 38.7383 3.65513 40.5439C3.71014 40.4263 3.74437 40.3529 3.78372 40.2689ZM1.34926 36.4008C1.21734 37.8263 1.07196 39.2508 1.08908 40.7104C1.33004 40.7706 1.55632 40.8272 1.78261 40.8837C1.77949 40.8986 1.77638 40.9133 1.77338 40.9282H0.0101139C0.00666847 40.9141 0.00333426 40.8998 0 40.8856C0.215949 40.8321 0.431898 40.7785 0.693859 40.7135C0.89247 39.0615 1.05251 37.3937 1.04196 35.7888C0.84379 35.2157 0.409892 35.1419 0.0105586 35H1.589C2.3292 36.6105 3.10786 38.1975 4.02534 39.7912C4.82623 38.1597 5.66902 36.6396 6.34309 35.0032H7.93343C7.93543 35.0165 7.93743 35.0299 7.93943 35.0432C7.62467 35.0952 7.30992 35.1472 6.99961 35.1985C6.8339 35.6877 7.10442 40.0098 7.34637 40.7293C7.55865 40.7799 7.77938 40.8323 8 40.8848L7.99478 40.9272C7.96321 40.9311 7.93176 40.9386 7.90031 40.9386C7.0863 40.9393 6.27241 40.9392 5.45174 40.8854C5.72748 40.836 6.00322 40.7866 6.27697 40.7375C6.44279 40.2906 6.28586 37.0256 6.05246 36.3308C5.25979 37.8951 4.46024 39.4152 3.74271 41C2.96116 39.4484 2.18883 37.9151 1.4165 36.3819C1.39405 36.3882 1.3716 36.3945 1.34926 36.4008Z" fill="#040000"/>
<path d="M39.5469 30.3166H38.2053V31.502H39.5469V30.3166ZM36.4373 31.4595H37.7945V30.2661H36.4373V31.4595ZM39.587 28.5488H38.2334V29.7598H39.587V28.5488ZM37.8192 28.4912H36.4651C36.4503 28.9085 36.4517 29.3021 36.4505 29.7227H37.8192V28.4912ZM36 31.9052C36.0222 30.586 36.0435 29.3191 36.0656 28C37.3753 28.0359 38.6715 28.0714 39.9953 28.1077C40.0181 29.4073 39.9502 30.6806 39.9494 31.9997C38.632 32.0054 37.3296 31.9157 36 31.9052Z" fill="#040000"/>
<path d="M34.9475 36.1831C35.5358 37.5803 36.1113 38.9467 36.6935 40.3295C36.8291 40.144 36.8048 39.9848 36.7295 39.8093C36.2333 38.6524 35.7427 37.4928 35.2502 36.334C35.192 36.1973 35.1329 36.061 35.0545 35.8786C35.0083 36.0102 34.979 36.0934 34.9475 36.1831ZM31.7634 35.2395C32.2185 36.9402 32.6637 38.604 33.1264 40.3333C33.1868 40.1557 33.2229 40.0495 33.2567 39.9502C32.8376 38.3762 32.4211 36.8123 32.0022 35.2395H31.7634ZM36.8122 41C36.2181 39.4109 35.5842 37.9155 34.908 36.3765C34.6267 36.8881 34.4829 37.4029 34.2898 37.8928C34.0895 38.4012 33.9018 38.9154 33.7152 39.4297C33.5328 39.9325 33.3587 40.4388 33.1628 40.995C32.655 39.0345 32.2233 37.1057 31.5828 35.2431C31.3744 35.1918 31.1873 35.1458 31 35.0999C31.0014 35.0891 31.0028 35.0784 31.0041 35.0676H33.5359C33.5366 35.0766 33.5375 35.0855 33.5384 35.0944C33.2243 35.1419 32.9103 35.1894 32.5531 35.2434C32.5764 35.4794 32.5854 35.7139 32.6245 35.9427C32.8075 37.0123 33.1177 38.0451 33.4319 39.0761C33.4423 39.1102 33.4698 39.1383 33.5069 39.1969C34.0947 37.8093 34.6089 36.4172 35.1033 35C35.6757 36.4317 36.2879 37.8348 36.9495 39.2276C37.3657 37.9169 37.7817 36.6199 37.9893 35.2313C37.6311 35.1816 37.3103 35.1371 36.9896 35.0928C36.9904 35.0831 36.9914 35.0735 36.9924 35.0639H38.9918C38.9945 35.0754 38.9973 35.0871 39 35.0987C38.8107 35.144 38.6213 35.1893 38.3965 35.2431C37.7853 37.1035 37.3278 39.0284 36.8122 41Z" fill="#040000"/>
<path d="M11.5862 40.7765C11.6391 40.7818 11.6668 40.7925 11.6904 40.7859C12.38 40.5945 12.9074 40.1764 13.2394 39.4985C13.5879 38.787 13.6462 38.0301 13.497 37.2553C13.3677 36.5833 13.0648 36.0163 12.5284 35.6125C12.1392 35.3196 11.7089 35.1581 11.2301 35.1586C11.3293 35.1999 11.4332 35.225 11.5368 35.2513C12.2394 35.4303 12.757 35.8537 13.0353 36.574C13.3485 37.3847 13.3725 38.2199 13.1588 39.0593C12.9455 39.8968 12.4602 40.4744 11.6695 40.736C11.649 40.7428 11.6299 40.755 11.5862 40.7765ZM10.7774 35.1573C9.80022 35.2135 9.04588 35.691 8.54378 36.5765C7.98906 37.5551 8.01537 38.5522 8.59866 39.5105C9.09784 40.3307 9.81852 40.7699 10.7311 40.8375C9.46809 40.6308 8.54897 39.6097 8.44407 38.242C8.39351 37.5826 8.54486 36.9631 8.88609 36.4062C9.33309 35.677 9.99292 35.3081 10.7774 35.1573ZM13.1385 38.0069C13.1229 37.8221 13.1126 37.5818 13.0808 37.3447C13.0005 36.7446 12.7616 36.2241 12.3312 35.8244C11.436 34.9928 10.0443 35.1863 9.36048 36.2234C9.0501 36.6939 8.91077 37.2248 8.88457 37.7888C8.85004 38.5333 8.96544 39.2403 9.39545 39.8594C10.1726 40.9786 11.7147 41.0308 12.5566 39.9643C12.9917 39.4131 13.1206 38.758 13.1385 38.0069ZM11.0119 41C9.96997 40.9574 9.09416 40.5704 8.49874 39.6425C7.34784 37.8496 8.31708 35.659 10.0966 35.1482C11.079 34.8663 12.0442 34.9629 12.873 35.6441C13.7654 36.3773 14.1634 37.3736 13.9382 38.566C13.7166 39.7398 13.0118 40.4949 11.9398 40.8367C11.6419 40.9317 11.3218 40.9478 11.0119 41Z" fill="#040000"/>
<path d="M28.2066 35.158C28.2354 35.1862 28.2412 35.1967 28.2488 35.1987C28.3357 35.2213 28.4228 35.2434 28.5101 35.2639C29.2831 35.445 29.8178 35.925 30.0843 36.7196C30.3496 37.5101 30.3629 38.3148 30.1421 39.1198C29.9288 39.8973 29.4733 40.441 28.7461 40.7111C28.7005 40.728 28.6553 40.7457 28.576 40.7761C28.639 40.7825 28.6667 40.7929 28.6903 40.7864C29.3795 40.5956 29.9065 40.1787 30.2382 39.5026C30.5864 38.7931 30.6448 38.0384 30.4957 37.2657C30.3663 36.5956 30.0637 36.0304 29.5277 35.6278C29.1387 35.3355 28.7087 35.1746 28.2066 35.158ZM27.7328 40.8212C26.7107 40.6948 25.6272 39.8589 25.4578 38.3477C25.3712 37.5748 25.561 36.8639 26.0064 36.2426C26.4497 35.6243 27.0658 35.3153 27.775 35.1848C26.5232 35.1532 25.0855 36.4316 25.1635 38.1344C25.2379 39.7585 26.6398 40.8662 27.7328 40.8212ZM30.1376 38.0206C30.1222 37.8365 30.1118 37.5969 30.0803 37.3605C29.9992 36.7516 29.757 36.2244 29.3138 35.8245C28.4056 35.0048 27.0292 35.213 26.3504 36.2564C26.0487 36.7201 25.9134 37.2401 25.8869 37.7922C25.8512 38.5345 25.9652 39.2395 26.394 39.8578C27.1692 40.9757 28.7101 41.0322 29.5526 39.9714C29.9885 39.4225 30.1187 38.7699 30.1376 38.0206ZM28.0249 41C27.1217 40.9676 26.3288 40.6746 25.7261 39.9492C24.4102 38.3652 25.0087 36.2191 26.5138 35.4167C27.6534 34.8092 28.8164 34.847 29.8595 35.6553C30.7775 36.3666 31.167 37.3882 30.9339 38.5879C30.7071 39.7558 30 40.5064 28.9255 40.8406C28.6355 40.9309 28.3256 40.9489 28.0249 41Z" fill="#040000"/>
<path d="M56.7716 34.8108C57.4143 36.4956 58.0505 38.1634 58.6877 39.8337C58.7714 39.8284 58.8316 39.8246 58.9262 39.8187C58.2497 38.0414 57.5827 36.2884 56.8925 34.4748C56.8368 34.6295 56.8078 34.7099 56.7716 34.8108ZM55.6693 37.8573C56.3963 37.9539 57.0802 37.9568 57.7967 37.8553C57.4764 36.9168 57.1389 36.0284 56.6903 35.1028C56.3376 36.0543 56.0098 36.9388 55.6693 37.8573ZM59.412 39.7996C59.6388 39.8584 59.8194 39.9053 60 39.9522C59.9983 39.9662 59.9964 39.9802 59.9947 39.9943H57.4849C57.4824 39.982 57.4799 39.9698 57.4775 39.9575C57.7841 39.9069 58.0908 39.8565 58.4205 39.8021C58.3457 39.2122 58.1541 38.6866 57.9015 38.175H55.5832C55.382 38.6963 55.1757 39.2188 55.0628 39.8022C55.3843 39.8555 55.6902 39.9064 55.9962 39.9571C55.9946 39.9714 55.9928 39.9857 55.9912 40H54.0089C54.006 39.9857 54.0029 39.9715 54 39.9572C54.2045 39.9069 54.409 39.8568 54.664 39.7942C54.8058 39.4616 54.9789 39.1031 55.1148 38.7284C55.6553 37.2382 56.184 35.743 56.7171 34.2496C56.7463 34.1679 56.7766 34.0865 56.8082 34H57.0925C57.8917 35.9219 58.4847 37.9472 59.412 39.7996Z" fill="#040000"/>
<path d="M67.3013 39.8402V34.1686C67.2138 34.174 67.1459 34.1783 67.068 34.1831V39.8331C67.1072 39.8449 67.1406 39.8631 67.174 39.8631C67.2164 39.8632 67.2588 39.8485 67.3013 39.8402ZM66 39.9619C66.2706 39.9197 66.5411 39.8773 66.8431 39.8302C66.9993 37.9525 66.9958 36.0826 66.8675 34.1851C66.5703 34.1313 66.2919 34.0808 66.0136 34.0304C66.0145 34.0203 66.0154 34.0101 66.0164 34H69.8652C69.8981 34.4058 69.9309 34.8099 69.9636 35.2139C69.7709 34.9328 69.7599 34.5765 69.6167 34.2507C69.0161 34.2142 68.4099 34.1938 67.7856 34.3464C67.7112 35.1321 67.6682 35.9059 67.7391 36.6755C68.1041 36.7929 68.9124 36.788 69.3453 36.6702C69.3967 36.4684 69.4501 36.2592 69.5077 36.0339C69.5936 36.2126 69.6182 37.1221 69.5602 37.7923C69.4092 37.5658 69.4304 37.3039 69.317 37.0525C68.8139 36.9661 68.2918 36.9829 67.775 37.0575C67.6753 37.4271 67.6805 38.855 67.7823 39.6186C68.3951 39.8099 69.0226 39.8044 69.656 39.7343C69.7589 39.3973 69.8532 39.0889 69.9475 38.7806C69.965 38.7842 69.9825 38.7877 70 38.7912C69.976 39.1892 69.952 39.5873 69.9272 40H66.005C66.0033 39.9873 66.0016 39.9746 66 39.9619Z" fill="#040000"/>
<path d="M42.0679 34.1706V39.8432H42.3076V34.1829C42.2285 34.1788 42.1606 34.1753 42.0679 34.1706ZM44.9992 38.7917C44.9992 38.8308 45.0013 38.8699 44.9987 38.9087C44.9748 39.2678 44.9501 39.6268 44.9246 40H41.0048C41.0031 39.9872 41.0016 39.9743 41 39.9614C41.2707 39.9192 41.5413 39.8769 41.843 39.8298C41.9978 37.9512 41.9956 36.0815 41.867 34.1853C41.5689 34.1314 41.2902 34.0809 41.0117 34.0305C41.0126 34.0203 41.0136 34.0101 41.0146 34H44.8657C44.8988 34.4072 44.9316 34.8113 44.9645 35.2154C44.9459 35.2218 44.9274 35.2281 44.9089 35.2345C44.8172 34.913 44.7255 34.5915 44.6285 34.2518C44.0154 34.2147 43.4088 34.1939 42.7846 34.3473C42.715 35.1336 42.6611 35.9071 42.7476 36.7125C43.2874 36.7783 43.8107 36.7919 44.3408 36.6895C44.3974 36.4673 44.4508 36.2581 44.5086 36.0312C44.5939 36.2155 44.6182 37.1514 44.5596 37.7925C44.4116 37.5645 44.4268 37.3048 44.3409 37.0942C44.0594 36.9705 43.1991 36.9641 42.768 37.0797C42.6757 37.4276 42.6821 38.888 42.7829 39.6192C43.3962 39.8084 44.0238 39.8055 44.6565 39.7333C44.7597 39.3962 44.854 39.088 44.9484 38.7799C44.9652 38.7838 44.9822 38.7877 44.9992 38.7917Z" fill="#040000"/>
<path d="M22.3415 40.8606C21.9099 40.8298 21.4825 40.778 21.0728 40.6062C20.6485 40.4284 20.2819 40.166 19.993 39.774C19.7109 39.3913 19.5276 38.9535 19.468 38.4708C19.3418 37.4493 19.5654 36.0404 20.9721 35.2891C20.9304 35.2896 20.8898 35.2967 20.8517 35.3119C19.7557 35.7443 19.0989 36.8814 19.1629 38.218C19.2025 39.0433 19.527 39.7114 20.1097 40.2154C20.7653 40.7825 21.5276 40.9423 22.3415 40.8606ZM24 39.9246C23.8397 40.2597 23.6794 40.5949 23.5077 40.9538C22.7814 40.8892 22.0616 41.0803 21.3294 40.9584C20.1719 40.7656 19.2691 39.9106 19.0554 38.6431C18.7539 36.8543 19.71 35.2844 21.2721 35.0418C21.7596 34.966 22.2635 35.0172 22.7599 35.0135C23.1413 35.0107 23.5226 35.0129 23.945 35.0129C23.9988 35.4029 23.9877 35.8208 23.9514 36.2515C23.8719 35.9801 23.7925 35.7087 23.7069 35.4165C23.0154 35.2623 22.3161 35.1184 21.6043 35.2829C20.8453 35.4583 20.299 35.9334 20.0393 36.7594C19.8104 37.488 19.7952 38.225 20.0381 38.9543C20.4505 40.1923 21.6065 40.8078 22.6926 40.6231C23.299 40.52 23.4511 40.4182 24 39.9246Z" fill="#040000"/>
<path d="M51.7188 35.1839V40.8243C51.8023 40.8243 51.8639 40.8264 51.9252 40.8229C51.9417 40.8218 51.9573 40.8032 51.9739 40.7922V35.1839H51.7188ZM54.9069 35C54.9394 35.4379 54.9697 35.847 55 36.2561C54.9822 36.2599 54.9643 36.2636 54.9465 36.2674C54.8445 35.9715 54.7425 35.6757 54.6338 35.3604C53.9309 35.2316 53.2389 35.2704 52.5167 35.4499C52.4036 37.2333 52.3806 39.0086 52.5641 40.7907C52.9262 40.8489 53.2575 40.9022 53.5887 40.9554C53.5863 40.9703 53.5839 40.9852 53.5814 41H50.4494C50.4466 40.9852 50.4436 40.9703 50.4407 40.9556C50.7661 40.902 51.0914 40.8482 51.4487 40.7894C51.6319 39.0143 51.5952 37.2462 51.5011 35.4919C50.9956 35.2792 50.1743 35.2394 49.3678 35.3804C49.2676 35.674 49.1639 35.9774 49.0604 36.2808C49.0402 36.2763 49.0201 36.2717 49 36.2671C49.0292 35.8563 49.0584 35.4454 49.0878 35.0319C51.0235 35.0617 52.9471 35.0938 54.9069 35Z" fill="#040000"/>
<path d="M62.7151 34.1813V39.8342C62.8143 39.8289 62.8924 39.8246 62.9736 39.8202V34.1813H62.7151ZM63.5617 39.7943C63.9177 39.851 64.2498 39.904 64.5819 39.9569C64.5799 39.9714 64.578 39.9857 64.576 40H61.4548L61.4446 39.9595C61.7654 39.9059 62.0863 39.8525 62.4011 39.8C62.5989 39.0833 62.6431 35.5058 62.47 34.4807C62.036 34.2812 61.227 34.2382 60.3669 34.3746C60.2673 34.6669 60.1635 34.9711 60.0598 35.2753C60.0399 35.2717 60.02 35.268 60 35.2641C60.0134 35.0624 60.0261 34.8604 60.0401 34.6587C60.0544 34.4516 60.0701 34.2447 60.0863 34.0217C62.0228 34.0652 63.954 34.0869 65.905 34C65.9377 34.4315 65.9688 34.8439 66 35.2563C65.9824 35.2606 65.9647 35.265 65.9471 35.2693C65.8454 34.9743 65.7437 34.6795 65.6329 34.3583C64.9363 34.2286 64.2442 34.2668 63.5163 34.4459C63.3999 36.2267 63.3805 38.0042 63.5617 39.7943Z" fill="#040000"/>
<path d="M47.3448 40.8988C47.493 40.8716 47.647 40.8659 47.7881 40.8134C48.2321 40.6481 48.5725 40.3459 48.6779 39.7855C48.7767 39.2597 48.6026 38.8395 48.2661 38.502C48.1063 38.3417 47.9294 38.2042 47.7575 38.0607C47.455 37.8082 47.1386 37.576 46.8496 37.3043C46.5195 36.994 46.3375 36.5779 46.441 36.0792C46.542 35.5929 46.8356 35.2876 47.2518 35.1555C47.3929 35.1107 47.5399 35.0911 47.7297 35.0501C47.332 35.0096 47.0134 35.1216 46.729 35.3526C46.1584 35.8158 46.064 36.6704 46.5143 37.2864C46.6177 37.428 46.7381 37.557 46.8652 37.67C47.1004 37.879 47.3499 38.0663 47.5869 38.2729C47.7964 38.4555 48.0144 38.6321 48.1975 38.847C48.5187 39.2238 48.5541 39.7483 48.3154 40.2026C48.0944 40.6236 47.7499 40.801 47.3448 40.8988ZM48.8244 35.0045V36.2809C48.815 36.2845 48.8055 36.288 48.796 36.2916C48.7265 36.0048 48.6569 35.718 48.5826 35.4119C48.1998 35.197 47.7994 35.0595 47.3675 35.2158C47.0224 35.3406 46.7711 35.5812 46.7145 36.0283C46.6803 36.2993 46.732 36.5452 46.8987 36.7351C47.0612 36.9202 47.2379 37.0914 47.4219 37.2471C47.7436 37.5193 48.0813 37.7661 48.4017 38.0403C48.6813 38.2797 48.8881 38.5918 48.9655 38.994C49.1376 39.8871 48.6487 40.7531 47.8649 40.9383C47.6837 40.9812 47.4948 41.0039 47.3101 40.9994C46.9042 40.9896 46.4989 40.9564 46.0551 40.9304C46.0367 40.4834 46.0183 40.0367 46 39.5901C46.0168 39.5851 46.0335 39.5801 46.0503 39.5751C46.137 39.8875 46.2238 40.1998 46.3155 40.5302C46.725 40.7275 47.1447 40.8507 47.5929 40.7083C47.8376 40.6306 48.0399 40.4749 48.1858 40.2296C48.4471 39.7904 48.417 39.2764 48.0738 38.9227C47.8087 38.6494 47.5069 38.4244 47.2274 38.1692C46.9682 37.9324 46.6912 37.7122 46.4671 37.4355C45.7341 36.5301 46.2415 35.2421 47.1883 35.0393C47.4912 34.9743 47.8107 35.0109 48.1227 35.0052C48.3419 35.0012 48.561 35.0045 48.8244 35.0045Z" fill="#040000"/>
<path d="M16.3399 40.8973C16.4878 40.8712 16.6415 40.8663 16.7825 40.8148C17.2272 40.6522 17.5679 40.3517 17.6763 39.792C17.7783 39.266 17.6061 38.8451 17.2699 38.5071C17.1041 38.3404 16.9189 38.1992 16.7404 38.0498C16.4383 37.7966 16.1222 37.5636 15.8349 37.2896C15.5142 36.9839 15.3407 36.5722 15.4396 36.0862C15.5385 35.5992 15.8312 35.2925 16.2462 35.1576C16.3902 35.1108 16.5409 35.0922 16.6868 35.061C16.2283 34.9934 15.7326 35.2329 15.4606 35.655C15.1642 36.115 15.1409 36.6667 15.4241 37.1366C15.5389 37.3271 15.686 37.4997 15.8423 37.6459C16.0858 37.8739 16.3531 38.0671 16.6038 38.2852C16.8066 38.4617 17.0178 38.6328 17.1937 38.8421C17.5687 39.2882 17.5555 39.9583 17.1825 40.4093C16.9556 40.6836 16.6719 40.8182 16.3399 40.8973ZM17.7958 36.2927C17.7264 36.006 17.6569 35.7194 17.5826 35.413C17.2005 35.1971 16.8002 35.0609 16.3683 35.2164C16.0229 35.3407 15.7718 35.5812 15.7147 36.0278C15.6801 36.2987 15.7314 36.5448 15.8982 36.7348C16.0604 36.92 16.2371 37.0912 16.421 37.247C16.7427 37.5192 17.0804 37.766 17.4008 38.0399C17.6805 38.2792 17.8876 38.5911 17.9653 38.993C18.1379 39.8857 17.6496 40.7513 16.8659 40.9384C16.6928 40.9796 16.5127 41.0039 16.3365 40.9995C15.9222 40.9891 15.5082 40.9566 15.0552 40.9308C15.0368 40.4843 15.0184 40.0377 15 39.5911C15.0169 39.5861 15.0337 39.581 15.0505 39.5758C15.1372 39.8877 15.2238 40.1995 15.3155 40.5298C15.7243 40.7275 16.1439 40.8505 16.5921 40.7085C16.8459 40.628 17.0535 40.4647 17.1994 40.2059C17.4459 39.7689 17.4113 39.2704 17.0744 38.9236C16.8091 38.6505 16.5071 38.4259 16.2282 38.1699C15.9631 37.9264 15.6789 37.6997 15.4516 37.4138C14.7575 36.5404 15.2175 35.2766 16.1627 35.0456C16.4712 34.9702 16.8014 35.0126 17.1219 35.006C17.3409 35.0014 17.5601 35.0051 17.8149 35.0051V36.2825C17.8085 36.2859 17.8022 36.2893 17.7958 36.2927Z" fill="#040000"/>
<path d="M35.605 43.9967C35.7628 43.8134 35.8056 43.5814 35.7247 43.35C35.6557 43.153 35.5529 43.1057 35.3738 43.1918V43.9967H35.605ZM35.5368 45H35.0216C35.0762 44.9605 35.1173 44.9306 35.1812 44.8843C35.2006 44.3152 35.192 43.7346 35.1853 43.1504C35.1286 43.1054 35.0825 43.069 35 43.0038C35.2663 43.007 35.4812 42.9742 35.708 43.057C35.8875 43.1225 36.0141 43.3556 35.9987 43.6219C35.9829 43.8953 35.8361 44.0945 35.6481 44.1115C35.5614 44.1195 35.4742 44.1129 35.3664 44.1129C35.3664 44.3331 35.3622 44.5564 35.368 44.7791C35.3716 44.9196 35.4638 44.9536 35.5368 45Z" fill="#040000"/>
<path d="M33.6725 44.203C33.9262 43.5645 34.1798 42.9261 34.4384 42.2751C34.3275 42.1781 34.242 42.1034 34.1259 42.002H35C34.5865 42.2202 34.5107 42.6249 34.3616 42.9808C34.1231 43.5498 33.9001 44.1253 33.6685 44.6972C33.6333 44.7841 33.5874 44.8663 33.5223 45C33.4445 44.8438 33.3831 44.734 33.3336 44.6189C33.0416 43.9412 32.7474 43.2642 32.4645 42.5825C32.3653 42.3432 32.26 42.1216 32 42H33.1221C33.005 42.0775 32.9213 42.1329 32.8006 42.2127C32.9814 42.9166 33.3431 43.5419 33.5967 44.211C33.6219 44.2082 33.6473 44.2056 33.6725 44.203Z" fill="#040000"/>
<path d="M34.0425 45C34.3623 44.8917 34.3667 44.8869 34.3671 44.5919C34.3679 44.1891 34.3684 43.7861 34.3666 43.3832C34.3661 43.3015 34.3547 43.2199 34.3484 43.1369C34.238 43.0935 34.1468 43.0576 34 43H35C34.9001 43.0454 34.8269 43.0787 34.7569 43.1105C34.6891 43.2987 34.6683 44.5 34.7288 44.8602C34.8019 44.899 34.8881 44.9447 34.9926 45H34.0425Z" fill="#040000"/>
<path d="M66 32.9945H65.7034C60.6035 32.9945 55.5047 32.9923 50.4048 33H50.3827C50.1116 32.9967 49.9168 32.905 49.7319 32.7116C48.7049 31.6298 47.669 30.5568 46.6364 29.4794C45.5783 28.3766 44.5203 27.2726 43.4633 26.1687C41.9737 24.6117 40.484 23.0547 38.9943 21.4978C38.8881 21.3862 38.7829 21.2712 38.6634 21.1419C35.7117 23.8769 32.7866 26.5875 29.8603 29.2982C29.8426 29.2904 29.8238 29.2827 29.805 29.275C29.8404 27.6992 29.8758 26.1234 29.9112 24.5145H26.8931C26.8312 26.5455 26.7692 28.5843 26.7072 30.6551C26.5866 30.6551 26.4792 30.6573 26.3719 30.6551C25.5352 30.6319 24.7582 30.8242 24.0654 31.3038C23.6371 31.5988 23.3504 32.0077 23.1468 32.4806C23.0715 32.6552 22.9797 32.8221 22.9011 32.9834H6.00222C6.00111 32.9724 6 32.9624 6 32.9514L17.519 32.2663C15.2624 28.8164 14.0815 25.0504 14.0494 20.9541C14.0483 20.7696 14.0483 20.585 14.0516 20.4016C14.0527 20.3143 14.056 20.227 14.0582 20.1408C14.1678 16.3395 15.2657 12.8089 17.3331 9.56236C19.6097 5.98207 22.952 3.38194 25.6237 2.12994V3.42946C25.4909 3.49797 25.3603 3.56979 25.2297 3.64162C25.2031 3.65378 25.1832 3.66372 25.1722 3.67035C25.0482 3.73997 24.9253 3.8118 24.8036 3.88473C24.7228 3.93224 24.642 3.97976 24.5623 4.02838C24.476 4.08142 24.3919 4.13446 24.3067 4.18751C24.2536 4.22066 24.2004 4.25602 24.1473 4.29027C24.0942 4.32453 24.0411 4.35989 23.989 4.39414C21.8121 5.82958 19.9494 7.70923 18.5162 9.88503C16.2806 13.2775 15.0764 17.3064 15.2015 21.3729C15.2579 23.2559 15.5822 25.1355 16.1743 26.9246C16.4632 27.7975 16.8162 28.6484 17.2279 29.4705C17.4305 29.8772 17.6485 30.2761 17.8787 30.6673C17.9672 30.8165 18.4686 31.8298 18.6191 31.8298H22.3699C22.9066 30.2562 24.1628 29.7424 25.7111 29.6407C25.7764 27.5412 25.8406 25.456 25.907 23.3354C26.0398 23.3177 26.1727 23.2835 26.3055 23.2868C27.6778 23.32 29.0513 23.3597 30.4237 23.3962C30.5598 23.3995 30.6959 23.3962 30.8431 23.3962V27.1224C31.3135 26.6925 31.7407 26.3013 32.1668 25.909C32.6006 25.5101 33.0312 25.1068 33.4639 24.7079C33.89 24.3145 34.3183 23.9222 34.7455 23.5299C35.1794 23.1321 35.6121 22.7332 36.047 22.3354C36.482 21.9376 36.918 21.5409 37.3541 21.1442C37.7891 20.7486 38.2251 20.353 38.6789 19.9408C42.5879 23.9631 46.487 27.9754 50.4104 32.0121C50.4989 31.9115 50.5786 31.8276 50.6505 31.737C53.0688 28.7269 54.4057 24.9377 54.4743 21.0856C54.5452 17.1053 53.3333 13.0984 51.1076 9.79883C49.2383 7.02632 46.6342 4.76765 43.646 3.25928C43.5762 3.22282 43.5065 3.18856 43.4368 3.15541C43.3859 3.12999 43.3338 3.10458 43.2818 3.08027C41.9294 2.43162 40.5028 1.93546 39.0341 1.61169C36.7974 1.11884 34.4788 1.01276 32.2088 1.31885V0.170728C35.4439 -0.248077 38.7774 0.106638 41.8497 1.20172C45.2397 2.41062 48.2888 4.52233 50.6284 7.25064C53.1086 10.1414 54.8695 13.8156 55.3952 17.6014C55.404 17.6545 55.4118 17.7086 55.4184 17.7617C55.4915 18.3208 55.5579 18.8788 55.5944 19.4424C55.8932 24.0581 54.7178 28.2904 52.2111 32.2221L65.8617 32.9702C65.9081 32.9779 65.9535 32.9856 66 32.9945Z" fill="#040000"/>
</svg>
